<svg xmlns="http://www.w3.org/2000/svg" viewBox="0 0 900 420" role="img" aria-labelledby="pennec-logo-title pennec-logo-desc">
  <title id="pennec-logo-title">PENNEC</title>
  <desc id="pennec-logo-desc">Paediatric Epilepsy Network for the North East and Cumbria.</desc>

  <defs>
    <style>
      .wordmark  { font-family: "Fraunces", "Playfair Display", "Georgia", serif; font-weight: 700; letter-spacing: .01em; }
      .tagline   { font-family: "Inter", "Segoe UI", "Helvetica Neue", Arial, sans-serif; font-weight: 500; letter-spacing: .02em; }
      .ink       { fill: #0f2a44; }
      .amber     { fill: #f4c05e; }
      .amber-d   { fill: #d89c2e; }
      .line      { fill: none; stroke: #1a3a5c; stroke-width: 5; stroke-linecap: round; }
    </style>

    <symbol id="starburst" viewBox="-50 -50 100 100">
      <path class="amber"
        d="M 0 -48 L 10 -18 L 42 -26 L 22 -4 L 48 10 L 16 14 L 26 44
           L 0 26 L -26 44 L -16 14 L -48 10 L -22 -4 L -42 -26 L -10 -18 Z"/>
      <circle class="amber-d" cx="0" cy="-4" r="14"/>
    </symbol>

    <symbol id="sparkle" viewBox="-20 -20 40 40">
      <path class="amber"
        d="M 0 -18 L 4 -6 L 16 -6 L 8 2 L 12 14 L 0 6 L -12 14 L -8 2 L -16 -6 L -4 -6 Z"/>
      <circle fill="#d89c2e" cx="0" cy="-2" r="3"/>
    </symbol>
  </defs>

  <!-- Starburst, top-left -->
  <use href="#starburst" x="30" y="40" width="140" height="140"/>

  <!-- Wordmark: textLength locks the rendered width regardless of font fallback -->
  <text class="wordmark ink"
        x="196" y="170"
        font-size="150"
        textLength="674"
        lengthAdjust="spacingAndGlyphs">PENNEC</text>

  <!-- Wavy underline with sparkles -->
  <path class="line" d="M 56 260 C 170 224, 280 298, 400 256 S 650 214, 842 258"/>
  <g>
    <use href="#sparkle" x="156" y="244" width="38" height="38"/>
    <use href="#sparkle" x="292" y="260" width="38" height="38"/>
    <use href="#sparkle" x="428" y="240" width="38" height="38"/>
    <use href="#sparkle" x="564" y="242" width="38" height="38"/>
    <use href="#sparkle" x="700" y="252" width="38" height="38"/>
  </g>

  <!-- Tagline: locked to the drawn width so it never clips -->
  <text class="tagline ink"
        x="56" y="348"
        font-size="30"
        textLength="790"
        lengthAdjust="spacingAndGlyphs">Paediatric Epilepsy Network for the North East and Cumbria</text>
</svg>
